<svg width="15" height="14" viewBox="0 0 15 14" fill="none" xmlns="http://www.w3.org/2000/svg">
    <path d="M12.476 1.66996C11.0645 0.578316 9.3077 -0.0112168 7.5 0.000161675C3.35778 0.000161675 0 2.96978 0 6.633C0 6.65083 -3.89843e-10 6.66911 0.000461646 6.68694C-3.89843e-10 6.69541 0 6.70343 0 6.7119C0.000494998 7.29956 0.0958752 7.88354 0.282697 8.44277C0.286387 8.45481 0.290539 8.46729 0.294688 8.47976C0.599392 9.39896 1.11327 10.2405 1.79856 10.9426C1.91462 11.4376 1.89951 11.9529 1.75465 12.4408C1.60978 12.9286 1.33984 13.3733 0.969841 13.7334C0.947246 13.7553 0.931848 13.783 0.925592 13.8133C0.919336 13.8436 0.922503 13.875 0.934694 13.9035C0.946885 13.932 0.967551 13.9564 0.994081 13.9736C1.02061 13.9908 1.05182 14 1.08375 14C2.32024 13.9954 3.50756 13.5314 4.40002 12.7042L4.42215 12.6837C5.39875 13.0708 6.44449 13.2687 7.5 13.2663C9.78463 13.2663 11.8304 12.3627 13.206 10.9377C14.3503 9.77656 14.9921 8.23657 15 6.633C15 4.65831 14.0242 2.88509 12.476 1.66996Z"
          fill="#868484"/>
</svg>