<svg width="15" height="13" viewBox="0 0 15 13" fill="none" xmlns="http://www.w3.org/2000/svg">
    <path d="M14.4057 4.31438L10.2457 0.154414C10.1427 0.0514809 10.0209 0 9.88007 0C9.73923 0 9.61731 0.0514809 9.51447 0.154414C9.41153 0.257405 9.35999 0.379291 9.35999 0.520102V2.60009H7.54001C3.67777 2.60009 1.30811 3.69157 0.430488 5.87449C0.143486 6.60023 0 7.50221 0 8.58013C0 9.47923 0.343974 10.7007 1.03187 12.2445C1.04809 12.2825 1.07643 12.3473 1.11713 12.4394C1.15779 12.5314 1.19431 12.6126 1.22681 12.6831C1.25942 12.7534 1.29465 12.813 1.33253 12.8617C1.39747 12.9538 1.47334 13 1.56002 13C1.64127 13 1.70493 12.9729 1.75101 12.9188C1.79697 12.8647 1.81999 12.7969 1.81999 12.7158C1.81999 12.6669 1.81322 12.5953 1.79964 12.5004C1.78609 12.4056 1.77929 12.3421 1.77929 12.3095C1.75217 11.9413 1.73863 11.6079 1.73863 11.3102C1.73863 10.7632 1.78609 10.273 1.8808 9.83966C1.97565 9.40627 2.10699 9.03124 2.27495 8.71433C2.44288 8.39731 2.65948 8.12397 2.92496 7.89374C3.19034 7.66351 3.47603 7.47535 3.78207 7.32907C4.08817 7.18277 4.44836 7.06766 4.86274 6.98373C5.27709 6.89978 5.69415 6.84153 6.11399 6.809C6.53384 6.77647 7.00915 6.76031 7.54001 6.76031H9.35999V8.84035C9.35999 8.98116 9.41142 9.10307 9.51427 9.20595C9.61728 9.30877 9.73911 9.36031 9.87987 9.36031C10.0207 9.36031 10.1426 9.30877 10.2457 9.20595L14.4056 5.04584C14.5086 4.94291 14.56 4.82108 14.56 4.68024C14.56 4.53943 14.5086 4.41751 14.4057 4.31438Z"
          fill="#868484"/>
</svg>