<svg width="15" height="13" viewBox="0 0 15 13" fill="none" xmlns="http://www.w3.org/2000/svg">
    <path d="M3.71875 0C2.69609 0 1.785 0.427656 1.09703 1.09703C0.427656 1.76641 0 2.6775 0 3.71875C0 4.74141 0.427656 5.6525 1.09703 6.34047L7.4375 12.6809L13.778 6.34047C14.4473 5.67109 14.875 4.76 14.875 3.71875C14.875 2.69609 14.4473 1.785 13.778 1.09703C13.1086 0.427656 12.1975 0 11.1562 0C10.1336 0 9.2225 0.427656 8.53453 1.09703C7.86516 1.76641 7.4375 2.6775 7.4375 3.71875C7.4375 2.69609 7.00984 1.785 6.34047 1.09703C5.67109 0.427656 4.76 0 3.71875 0Z"
          fill="#868484"/>
</svg>